<svg version="1.2" xmlns="http://www.w3.org/2000/svg" viewBox="0 0 36 36" width="36" height="36"><style>.a{fill:#fff}.b{fill:none;stroke:#212529;stroke-linecap:round;stroke-linejoin:round;stroke-width:1.5}</style><path class="a" d="m0 4c0-2.2 1.8-4 4-4h28c2.2 0 4 1.8 4 4v28c0 2.2-1.8 4-4 4h-28c-2.2 0-4-1.8-4-4z"/><path fill-rule="evenodd" class="b" d="m11.1 11.1c-1.2 0.4-2.1 1.8-2.1 3v7.5c0 1.1 0.8 2.7 1.7 3.4l4.3 3.2c1.4 1.1 3.8 1.1 5.2 0l4.3-3.2c0.9-0.7 1.7-2.3 1.7-3.4v-7.5c0-1.2-0.9-2.6-2.1-3l-5-1.9c-0.8-0.3-2.2-0.3-3 0z"/><path class="b" d="m14.6 18.9l1.7 1.6 4.3-4.3"/></svg>