<svg version="1.2" xmlns="http://www.w3.org/2000/svg" viewBox="0 0 36 36" width="36" height="36"><style>.a{fill:#fff}.b{fill:none;stroke:#212529;stroke-width:1.5}.c{fill:none;stroke:#212529;stroke-linecap:round;stroke-linejoin:round;stroke-width:1.5}</style><path class="a" d="m0 4c0-2.2 1.8-4 4-4h28c2.2 0 4 1.8 4 4v28c0 2.2-1.8 4-4 4h-28c-2.2 0-4-1.8-4-4z"/><path class="b" d="m13.5 24.8l3.3 2.6c0.4 0.4 1.4 0.6 2 0.6h4.1c1.2 0 2.6-1 3-2.2l2.5-7.9c0.6-1.4-0.4-2.7-2-2.7h-4.3c-0.6 0-1.2-0.6-1.1-1.3l0.6-3.4c0.2-1-0.4-2.1-1.4-2.4-0.9-0.3-1.9 0.1-2.4 0.8l-4.3 6.5"/><path fill-rule="evenodd" class="c" d="m8 14.3c0-1.5 0.6-2 2.1-2h1.1c1.5 0 2.1 0.5 2.1 2v10.5c0 1.5-0.6 2-2.1 2h-1.1c-1.5 0-2.1-0.5-2.1-2z"/></svg>